<svg xmlns="http://www.w3.org/2000/svg" xmlns:xlink="http://www.w3.org/1999/xlink" width="860" height="277.1"><rect width="860" height="277.1" rx="5" ry="5" class="a"/><svg y="0%" x="0%"><circle cx="20" cy="20" r="6" fill="#ff5f58"/><circle cx="40" cy="20" r="6" fill="#ffbd2e"/><circle cx="60" cy="20" r="6" fill="#18c132"/></svg><svg height="217.1" viewBox="0 0 82 21.71" width="820" x="15" xmlns="http://www.w3.org/2000/svg" xmlns:xlink="http://www.w3.org/1999/xlink" y="50"><style>@keyframes l{0%{transform:translateX(0)}1.35%{transform:translateX(-82px)}2.69%{transform:translateX(-164px)}2.96%{transform:translateX(-246px)}3.23%{transform:translateX(-328px)}3.5%{transform:translateX(-410px)}3.77%{transform:translateX(-492px)}4.04%{transform:translateX(-574px)}4.31%{transform:translateX(-656px)}4.58%{transform:translateX(-738px)}4.85%{transform:translateX(-820px)}5.12%{transform:translateX(-902px)}5.39%{transform:translateX(-984px)}5.66%{transform:translateX(-1066px)}7.72%{transform:translateX(-1148px)}9.52%{transform:translateX(-1230px)}9.74%{transform:translateX(-1312px)}9.97%{transform:translateX(-1394px)}10.19%{transform:translateX(-1476px)}10.42%{transform:translateX(-1558px)}10.64%{transform:translateX(-1640px)}14.23%{transform:translateX(-1722px)}14.68%{transform:translateX(-1804px)}16.03%{transform:translateX(-1886px)}16.3%{transform:translateX(-1968px)}16.57%{transform:translateX(-2050px)}16.84%{transform:translateX(-2132px)}17.11%{transform:translateX(-2214px)}17.38%{transform:translateX(-2296px)}17.65%{transform:translateX(-2378px)}17.92%{transform:translateX(-2460px)}18.19%{transform:translateX(-2542px)}18.46%{transform:translateX(-2624px)}18.72%{transform:translateX(-2706px)}18.99%{transform:translateX(-2788px)}19.26%{transform:translateX(-2870px)}19.53%{transform:translateX(-2952px)}19.8%{transform:translateX(-3034px)}20.07%{transform:translateX(-3116px)}20.34%{transform:translateX(-3198px)}20.61%{transform:translateX(-3280px)}20.88%{transform:translateX(-3362px)}21.15%{transform:translateX(-3444px)}21.42%{transform:translateX(-3526px)}21.69%{transform:translateX(-3608px)}23.75%{transform:translateX(-3690px)}25.55%{transform:translateX(-3772px)}25.77%{transform:translateX(-3854px)}26%{transform:translateX(-3936px)}26.22%{transform:translateX(-4018px)}26.45%{transform:translateX(-4100px)}30.04%{transform:translateX(-4182px)}30.49%{transform:translateX(-4264px)}31.84%{transform:translateX(-4346px)}32.11%{transform:translateX(-4428px)}32.38%{transform:translateX(-4510px)}32.64%{transform:translateX(-4592px)}32.91%{transform:translateX(-4674px)}33.18%{transform:translateX(-4756px)}33.45%{transform:translateX(-4838px)}33.72%{transform:translateX(-4920px)}33.99%{transform:translateX(-5002px)}34.26%{transform:translateX(-5084px)}34.53%{transform:translateX(-5166px)}34.8%{transform:translateX(-5248px)}35.07%{transform:translateX(-5330px)}35.34%{transform:translateX(-5412px)}35.61%{transform:translateX(-5494px)}35.88%{transform:translateX(-5576px)}36.15%{transform:translateX(-5658px)}36.42%{transform:translateX(-5740px)}36.69%{transform:translateX(-5822px)}36.96%{transform:translateX(-5904px)}37.22%{transform:translateX(-5986px)}37.49%{transform:translateX(-6068px)}37.76%{transform:translateX(-6150px)}38.03%{transform:translateX(-6232px)}38.3%{transform:translateX(-6314px)}38.57%{transform:translateX(-6396px)}38.84%{transform:translateX(-6478px)}39.11%{transform:translateX(-6560px)}39.38%{transform:translateX(-6642px)}39.65%{transform:translateX(-6724px)}39.92%{transform:translateX(-6806px)}40.19%{transform:translateX(-6888px)}40.46%{transform:translateX(-6970px)}40.73%{transform:translateX(-7052px)}41%{transform:translateX(-7134px)}41.27%{transform:translateX(-7216px)}41.54%{transform:translateX(-7298px)}41.81%{transform:translateX(-7380px)}43.87%{transform:translateX(-7462px)}45.67%{transform:translateX(-7544px)}45.89%{transform:translateX(-7626px)}46.12%{transform:translateX(-7708px)}46.34%{transform:translateX(-7790px)}46.56%{transform:translateX(-7872px)}50.16%{transform:translateX(-7954px)}50.61%{transform:translateX(-8036px)}51.95%{transform:translateX(-8118px)}52.22%{transform:translateX(-8200px)}52.49%{transform:translateX(-8282px)}52.76%{transform:translateX(-8364px)}53.03%{transform:translateX(-8446px)}53.3%{transform:translateX(-8528px)}53.57%{transform:translateX(-8610px)}53.84%{transform:translateX(-8692px)}54.11%{transform:translateX(-8774px)}54.38%{transform:translateX(-8856px)}54.65%{transform:translateX(-8938px)}54.92%{transform:translateX(-9020px)}57.43%{transform:translateX(-9102px)}59.23%{transform:translateX(-9184px)}59.45%{transform:translateX(-9266px)}63.04%{transform:translateX(-9348px)}63.49%{transform:translateX(-9430px)}64.84%{transform:translateX(-9512px)}65.11%{transform:translateX(-9594px)}65.38%{transform:translateX(-9676px)}65.65%{transform:translateX(-9758px)}65.92%{transform:translateX(-9840px)}66.19%{transform:translateX(-9922px)}66.46%{transform:translateX(-10004px)}66.73%{transform:translateX(-10086px)}67%{transform:translateX(-10168px)}67.27%{transform:translateX(-10250px)}69.33%{transform:translateX(-10332px)}70.68%{transform:translateX(-10414px)}71.13%{transform:translateX(-10496px)}72.47%{transform:translateX(-10578px)}72.74%{transform:translateX(-10660px)}73.01%{transform:translateX(-10742px)}73.28%{transform:translateX(-10824px)}73.55%{transform:translateX(-10906px)}73.82%{transform:translateX(-10988px)}74.09%{transform:translateX(-11070px)}74.36%{transform:translateX(-11152px)}74.63%{transform:translateX(-11234px)}74.9%{transform:translateX(-11316px)}75.17%{transform:translateX(-11398px)}75.44%{transform:translateX(-11480px)}75.71%{transform:translateX(-11562px)}75.98%{transform:translateX(-11644px)}76.25%{transform:translateX(-11726px)}76.52%{transform:translateX(-11808px)}76.78%{transform:translateX(-11890px)}77.05%{transform:translateX(-11972px)}77.32%{transform:translateX(-12054px)}77.59%{transform:translateX(-12136px)}77.86%{transform:translateX(-12218px)}78.13%{transform:translateX(-12300px)}78.4%{transform:translateX(-12382px)}78.67%{transform:translateX(-12464px)}78.94%{transform:translateX(-12546px)}79.21%{transform:translateX(-12628px)}79.48%{transform:translateX(-12710px)}79.75%{transform:translateX(-12792px)}80.02%{transform:translateX(-12874px)}80.29%{transform:translateX(-12956px)}82.35%{transform:translateX(-13038px)}83.7%{transform:translateX(-13120px)}85.05%{transform:translateX(-13202px)}85.32%{transform:translateX(-13284px)}85.59%{transform:translateX(-13366px)}85.86%{transform:translateX(-13448px)}86.12%{transform:translateX(-13530px)}86.39%{transform:translateX(-13612px)}86.66%{transform:translateX(-13694px)}86.93%{transform:translateX(-13776px)}89%{transform:translateX(-13858px)}91.24%{transform:translateX(-13940px)}91.69%{transform:translateX(-14022px)}92.14%{transform:translateX(-14104px)}92.59%{transform:translateX(-14186px)}93.04%{transform:translateX(-14268px)}93.26%{transform:translateX(-14350px)}to{transform:translateX(-14432px)}}.a{fill:#282d35}.f,.g,.h,.i{fill:#a8cc8c;white-space:pre}.g,.h,.i{fill:#b9c0cb}.h,.i{fill:#6f7783}.i{fill:#66c2cd}</style><g font-family="Monaco,Consolas,Menlo,'Bitstream Vera Sans Mono','Powerline Symbols',monospace" font-size="1.67"><defs><symbol id="1"><text y="1.67" class="f">❯</text></symbol><symbol id="2"><text y="1.67" class="f">❯</text><text x="2.004" y="1.67" class="g">d</text></symbol><symbol id="3"><text y="1.67" class="f">❯</text><text x="2.004" y="1.67" class="g">de</text></symbol><symbol id="4"><text y="1.67" class="f">❯</text><text x="2.004" y="1.67" class="g">dev</text></symbol><symbol id="5"><text y="1.67" class="f">❯</text><text x="2.004" y="1.67" class="g">devs</text></symbol><symbol id="6"><text y="1.67" class="f">❯</text><text x="2.004" y="1.67" class="g">devsy</text></symbol><symbol id="7"><text y="1.67" class="f">❯</text><text x="2.004" y="1.67" class="g">devsyn</text></symbol><symbol id="8"><text y="1.67" class="f">❯</text><text x="2.004" y="1.67" class="g">devsync</text></symbol><symbol id="9"><text y="1.67" class="f">❯</text><text x="2.004" y="1.67" class="g">devsync</text><text x="10.02" y="1.67" class="g">init</text></symbol><symbol id="10"><text y="1.67" class="f">✓</text><text x="2.004" y="1.67" class="g">Initialized</text><text x="14.028" y="1.67" class="g">sync</text><text x="19.038" y="1.67" class="g">directory</text></symbol><symbol id="11"><text x="2.004" y="1.67" class="h">directory</text><text x="12.024" y="1.67" class="i">~/.config/devsync/sync</text></symbol><symbol id="12"><text x="2.004" y="1.67" class="h">config</text><text x="12.024" y="1.67" class="i">~/.config/devsync/config.toml</text></symbol><symbol id="13"><text x="2.004" y="1.67" class="h">identity</text><text x="12.024" y="1.67" class="i">~/.config/devsync/key.txt</text></symbol><symbol id="14"><text x="2.004" y="1.67" class="h">git</text><text x="12.024" y="1.67" class="g">initialized</text><text x="24.048" y="1.67" class="g">new</text><text x="28.056" y="1.67" class="g">repository</text></symbol><symbol id="15"><text y="1.67" class="f">❯</text><text x="2.004" y="1.67" class="g">devsync</text><text x="10.02" y="1.67" class="g">t</text></symbol><symbol id="16"><text y="1.67" class="f">❯</text><text x="2.004" y="1.67" class="g">devsync</text><text x="10.02" y="1.67" class="g">tr</text></symbol><symbol id="17"><text y="1.67" class="f">❯</text><text x="2.004" y="1.67" class="g">devsync</text><text x="10.02" y="1.67" class="g">tra</text></symbol><symbol id="18"><text y="1.67" class="f">❯</text><text x="2.004" y="1.67" class="g">devsync</text><text x="10.02" y="1.67" class="g">trac</text></symbol><symbol id="19"><text y="1.67" class="f">❯</text><text x="2.004" y="1.67" class="g">devsync</text><text x="10.02" y="1.67" class="g">track</text></symbol><symbol id="20"><text y="1.67" class="f">❯</text><text x="2.004" y="1.67" class="g">devsync</text><text x="10.02" y="1.67" class="g">track</text><text x="16.032" y="1.67" class="g">s</text></symbol><symbol id="21"><text y="1.67" class="f">❯</text><text x="2.004" y="1.67" class="g">devsync</text><text x="10.02" y="1.67" class="g">track</text><text x="16.032" y="1.67" class="g">so</text></symbol><symbol id="22"><text y="1.67" class="f">❯</text><text x="2.004" y="1.67" class="g">devsync</text><text x="10.02" y="1.67" class="g">track</text><text x="16.032" y="1.67" class="g">som</text></symbol><symbol id="23"><text y="1.67" class="f">❯</text><text x="2.004" y="1.67" class="g">devsync</text><text x="10.02" y="1.67" class="g">track</text><text x="16.032" y="1.67" class="g">some</text></symbol><symbol id="24"><text y="1.67" class="f">❯</text><text x="2.004" y="1.67" class="g">devsync</text><text x="10.02" y="1.67" class="g">track</text><text x="16.032" y="1.67" class="g">somefile</text></symbol><symbol id="25"><text y="1.67" class="f">✓</text><text x="2.004" y="1.67" class="g">Tracked</text><text x="10.02" y="1.67" class="g">sync</text><text x="15.03" y="1.67" class="g">target</text></symbol><symbol id="26"><text x="2.004" y="1.67" class="h">local</text><text x="12.024" y="1.67" class="i">~/somefile</text></symbol><symbol id="27"><text x="2.004" y="1.67" class="h">repo</text><text x="12.024" y="1.67" class="g">somefile</text></symbol><symbol id="28"><text x="2.004" y="1.67" class="h">kind</text><text x="12.024" y="1.67" class="g">file</text></symbol><symbol id="29"><text y="1.67" class="f">❯</text><text x="2.004" y="1.67" class="g">devsync</text><text x="10.02" y="1.67" class="g">track</text><text x="16.032" y="1.67" class="g">somesecret</text></symbol><symbol id="30"><text y="1.67" class="f">❯</text><text x="2.004" y="1.67" class="g">devsync</text><text x="10.02" y="1.67" class="g">track</text><text x="16.032" y="1.67" class="g">somesecret</text><text x="27.054" y="1.67" class="g">--mode</text></symbol><symbol id="31"><text y="1.67" class="f">❯</text><text x="2.004" y="1.67" class="g">devsync</text><text x="10.02" y="1.67" class="g">track</text><text x="16.032" y="1.67" class="g">somesecret</text><text x="27.054" y="1.67" class="g">--mode</text><text x="34.068" y="1.67" class="g">secret</text></symbol><symbol id="32"><text x="2.004" y="1.67" class="h">local</text><text x="12.024" y="1.67" class="i">~/somesecret</text></symbol><symbol id="33"><text x="2.004" y="1.67" class="h">repo</text><text x="12.024" y="1.67" class="g">somesecret</text></symbol><symbol id="34"><text y="1.67" class="f">❯</text><text x="2.004" y="1.67" class="g">devsync</text><text x="10.02" y="1.67" class="g">push</text></symbol><symbol id="35"><text y="1.67" class="f">✓</text><text x="2.004" y="1.67" class="g">Pushed</text><text x="9.018" y="1.67" class="g">to</text><text x="12.024" y="1.67" class="g">sync</text><text x="17.034" y="1.67" class="g">repository</text></symbol><symbol id="36"><text y="1.67" class="f">❯</text><text x="2.004" y="1.67" class="g">devsync</text><text x="10.02" y="1.67" class="g">cd</text></symbol><symbol id="37"><text y="1.67" class="f">❯</text><text x="2.004" y="1.67" class="h">(~/.config/devsync/sync)</text></symbol><symbol id="38"><text y="1.67" class="f">❯</text><text x="2.004" y="1.67" class="g">g</text></symbol><symbol id="39"><text y="1.67" class="f">❯</text><text x="2.004" y="1.67" class="g">gi</text></symbol><symbol id="40"><text y="1.67" class="f">❯</text><text x="2.004" y="1.67" class="g">git</text></symbol><symbol id="41"><text y="1.67" class="f">❯</text><text x="2.004" y="1.67" class="g">git</text><text x="6.012" y="1.67" class="g">remote</text></symbol><symbol id="42"><text y="1.67" class="f">❯</text><text x="2.004" y="1.67" class="g">git</text><text x="6.012" y="1.67" class="g">remote</text><text x="13.026" y="1.67" class="g">add</text></symbol><symbol id="43"><text y="1.67" class="f">❯</text><text x="2.004" y="1.67" class="g">git</text><text x="6.012" y="1.67" class="g">remote</text><text x="13.026" y="1.67" class="g">add</text><text x="17.034" y="1.67" class="g">origin</text></symbol><symbol id="44"><text y="1.67" class="f">❯</text><text x="2.004" y="1.67" class="g">git</text><text x="6.012" y="1.67" class="g">remote</text><text x="13.026" y="1.67" class="g">add</text><text x="17.034" y="1.67" class="g">origin</text><text x="24.048" y="1.67" class="g">somerepo</text></symbol><symbol id="45"><text y="1.67" class="f">❯</text><text x="2.004" y="1.67" class="g">git</text><text x="6.012" y="1.67" class="g">push</text></symbol><symbol id="46"><text y="1.67" class="g">Enumerating</text><text x="12.024" y="1.67" class="g">objects:</text><text x="21.042" y="1.67" class="g">5,</text><text x="24.048" y="1.67" class="g">done.</text></symbol><symbol id="47"><text y="1.67" class="g">Counting</text><text x="9.018" y="1.67" class="g">objects:</text><text x="18.036" y="1.67" class="g">100%</text><text x="23.046" y="1.67" class="g">(5/5),</text><text x="30.06" y="1.67" class="g">done.</text></symbol><symbol id="48"><text y="1.67" class="g">Writing</text><text x="8.016" y="1.67" class="g">objects:</text><text x="17.034" y="1.67" class="g">100%</text><text x="22.044" y="1.67" class="g">(5/5),</text><text x="29.058" y="1.67" class="g">581</text><text x="33.066" y="1.67" class="g">bytes</text><text x="39.078" y="1.67" class="g">|</text><text x="41.082" y="1.67" class="g">581.00</text><text x="48.096" y="1.67" class="g">KiB/s,</text><text x="55.11" y="1.67" class="g">done.</text></symbol><symbol id="49"><text y="1.67" class="g">Total</text><text x="6.012" y="1.67" class="g">5</text><text x="8.016" y="1.67" class="g">(delta</text><text x="15.03" y="1.67" class="g">0),</text><text x="19.038" y="1.67" class="g">reused</text><text x="26.052" y="1.67" class="g">0</text><text x="28.056" y="1.67" class="g">(delta</text><text x="35.07" y="1.67" class="g">0),</text><text x="39.078" y="1.67" class="g">pack-reused</text><text x="51.102" y="1.67" class="g">0</text></symbol><symbol id="50"><text y="1.67" class="g">To</text><text x="3.006" y="1.67" class="g">somerepo</text></symbol><symbol id="51"><text x="1.002" y="1.67" class="g">*</text><text x="3.006" y="1.67" class="g">[new</text><text x="8.016" y="1.67" class="g">branch]</text><text x="21.042" y="1.67" class="g">main</text><text x="26.052" y="1.67" class="g">-&gt;</text><text x="29.058" y="1.67" class="g">main</text></symbol><symbol id="a"><path fill="transparent" d="M0 0h82v11H0z"/></symbol><symbol id="b"><path fill="#6f7683" d="M0 0h1.102v2.171H0z"/></symbol></defs><path class="a" d="M0 0h82v21.71H0z"/><g style="animation-duration:22.27s;animation-iteration-count:infinite;animation-name:l;animation-timing-function:steps(1,end)"><svg width="14514"><svg><use xlink:href="#a"/><use xlink:href="#b" x="-.004"/></svg><svg x="82"><use xlink:href="#a"/><use xlink:href="#b" x="1.996"/><use xlink:href="#1"/></svg><svg x="164"><use xlink:href="#a"/><use xlink:href="#b" x="2.996"/><use xlink:href="#2"/></svg><svg x="246"><use xlink:href="#a"/><use xlink:href="#b" x="3.996"/><use xlink:href="#3"/></svg><svg x="328"><use xlink:href="#a"/><use xlink:href="#b" x="4.996"/><use xlink:href="#4"/></svg><svg x="410"><use xlink:href="#a"/><use xlink:href="#b" x="5.996"/><use xlink:href="#5"/></svg><svg x="492"><use xlink:href="#a"/><use xlink:href="#b" x="6.996"/><use xlink:href="#6"/></svg><svg x="574"><use xlink:href="#a"/><use xlink:href="#b" x="7.996"/><use xlink:href="#7"/></svg><svg x="656"><use xlink:href="#a"/><use xlink:href="#b" x="8.996"/><use xlink:href="#8"/></svg><svg x="738"><use xlink:href="#a"/><use xlink:href="#b" x="9.996"/><use xlink:href="#8"/></svg><svg x="820"><use xlink:href="#a"/><use xlink:href="#b" x="10.996"/><text y="1.67" class="f">❯</text><text x="2.004" y="1.67" class="g">devsync</text><text x="10.02" y="1.67" class="g">i</text></svg><svg x="902"><use xlink:href="#a"/><use xlink:href="#b" x="11.996"/><text y="1.67" class="f">❯</text><text x="2.004" y="1.67" class="g">devsync</text><text x="10.02" y="1.67" class="g">in</text></svg><svg x="984"><use xlink:href="#a"/><use xlink:href="#b" x="12.996"/><text y="1.67" class="f">❯</text><text x="2.004" y="1.67" class="g">devsync</text><text x="10.02" y="1.67" class="g">ini</text></svg><svg x="1066"><use xlink:href="#a"/><use xlink:href="#b" x="13.996"/><use xlink:href="#9"/></svg><svg x="1148"><use xlink:href="#a"/><use xlink:href="#b" x="-.004" y="2.146"/><use xlink:href="#9"/></svg><svg x="1230"><use xlink:href="#a"/><use xlink:href="#b" x="-.004" y="4.317"/><use xlink:href="#9"/><use xlink:href="#10" y="2.171"/></svg><svg x="1312"><use xlink:href="#a"/><use xlink:href="#b" x="-.004" y="6.488"/><use xlink:href="#9"/><use xlink:href="#10" y="2.171"/><use xlink:href="#11" y="4.342"/></svg><svg x="1394"><use xlink:href="#a"/><use xlink:href="#b" x="-.004" y="8.659"/><use xlink:href="#9"/><use xlink:href="#10" y="2.171"/><use xlink:href="#11" y="4.342"/><use xlink:href="#12" y="6.513"/></svg><svg x="1476"><use xlink:href="#a"/><use xlink:href="#b" x="-.004" y="10.83"/><use xlink:href="#9"/><use xlink:href="#10" y="2.171"/><use xlink:href="#11" y="4.342"/><use xlink:href="#12" y="6.513"/><use xlink:href="#13" y="8.684"/></svg><svg x="1558"><use xlink:href="#a"/><use xlink:href="#b" x="-.004" y="13.001"/><use xlink:href="#9"/><use xlink:href="#10" y="2.171"/><use xlink:href="#11" y="4.342"/><use xlink:href="#12" y="6.513"/><use xlink:href="#13" y="8.684"/><use xlink:href="#14" y="10.855"/></svg><svg x="1640"><use xlink:href="#a"/><use xlink:href="#b" x="-.004" y="15.172"/><use xlink:href="#9"/><use xlink:href="#10" y="2.171"/><use xlink:href="#11" y="4.342"/><use xlink:href="#12" y="6.513"/><use xlink:href="#13" y="8.684"/><use xlink:href="#14" y="10.855"/><text x="2.004" y="14.696" class="h">age</text><text x="12.024" y="14.696" class="g">generated</text><text x="22.044" y="14.696" class="g">a</text><text x="24.048" y="14.696" class="g">new</text><text x="28.056" y="14.696" class="g">local</text><text x="34.068" y="14.696" class="g">identity</text></svg><svg x="1722"><use xlink:href="#a"/><use xlink:href="#b" x="-.004"/></svg><svg x="1804"><use xlink:href="#a"/><use xlink:href="#b" x="1.996"/><use xlink:href="#1"/></svg><svg x="1886"><use xlink:href="#a"/><use xlink:href="#b" x="2.996"/><use xlink:href="#2"/></svg><svg x="1968"><use xlink:href="#a"/><use xlink:href="#b" x="3.996"/><use xlink:href="#3"/></svg><svg x="2050"><use xlink:href="#a"/><use xlink:href="#b" x="4.996"/><use xlink:href="#4"/></svg><svg x="2132"><use xlink:href="#a"/><use xlink:href="#b" x="5.996"/><use xlink:href="#5"/></svg><svg x="2214"><use xlink:href="#a"/><use xlink:href="#b" x="6.996"/><use xlink:href="#6"/></svg><svg x="2296"><use xlink:href="#a"/><use xlink:href="#b" x="7.996"/><use xlink:href="#7"/></svg><svg x="2378"><use xlink:href="#a"/><use xlink:href="#b" x="8.996"/><use xlink:href="#8"/></svg><svg x="2460"><use xlink:href="#a"/><use xlink:href="#b" x="9.996"/><use xlink:href="#8"/></svg><svg x="2542"><use xlink:href="#a"/><use xlink:href="#b" x="10.996"/><use xlink:href="#15"/></svg><svg x="2624"><use xlink:href="#a"/><use xlink:href="#b" x="11.996"/><use xlink:href="#16"/></svg><svg x="2706"><use xlink:href="#a"/><use xlink:href="#b" x="12.996"/><use xlink:href="#17"/></svg><svg x="2788"><use xlink:href="#a"/><use xlink:href="#b" x="13.996"/><use xlink:href="#18"/></svg><svg x="2870"><use xlink:href="#a"/><use xlink:href="#b" x="14.996"/><use xlink:href="#19"/></svg><svg x="2952"><use xlink:href="#a"/><use xlink:href="#b" x="15.996"/><use xlink:href="#19"/></svg><svg x="3034"><use xlink:href="#a"/><use xlink:href="#b" x="16.996"/><use xlink:href="#20"/></svg><svg x="3116"><use xlink:href="#a"/><use xlink:href="#b" x="17.996"/><use xlink:href="#21"/></svg><svg x="3198"><use xlink:href="#a"/><use xlink:href="#b" x="18.996"/><use xlink:href="#22"/></svg><svg x="3280"><use xlink:href="#a"/><use xlink:href="#b" x="19.996"/><use xlink:href="#23"/></svg><svg x="3362"><use xlink:href="#a"/><use xlink:href="#b" x="20.996"/><text y="1.67" class="f">❯</text><text x="2.004" y="1.67" class="g">devsync</text><text x="10.02" y="1.67" class="g">track</text><text x="16.032" y="1.67" class="g">somef</text></svg><svg x="3444"><use xlink:href="#a"/><use xlink:href="#b" x="21.996"/><text y="1.67" class="f">❯</text><text x="2.004" y="1.67" class="g">devsync</text><text x="10.02" y="1.67" class="g">track</text><text x="16.032" y="1.67" class="g">somefi</text></svg><svg x="3526"><use xlink:href="#a"/><use xlink:href="#b" x="22.996"/><text y="1.67" class="f">❯</text><text x="2.004" y="1.67" class="g">devsync</text><text x="10.02" y="1.67" class="g">track</text><text x="16.032" y="1.67" class="g">somefil</text></svg><svg x="3608"><use xlink:href="#a"/><use xlink:href="#b" x="23.996"/><use xlink:href="#24"/></svg><svg x="3690"><use xlink:href="#a"/><use xlink:href="#b" x="-.004" y="2.146"/><use xlink:href="#24"/></svg><svg x="3772"><use xlink:href="#a"/><use xlink:href="#b" x="-.004" y="4.317"/><use xlink:href="#24"/><use xlink:href="#25" y="2.171"/></svg><svg x="3854"><use xlink:href="#a"/><use xlink:href="#b" x="-.004" y="6.488"/><use xlink:href="#24"/><use xlink:href="#25" y="2.171"/><use xlink:href="#26" y="4.342"/></svg><svg x="3936"><use xlink:href="#a"/><use xlink:href="#b" x="-.004" y="8.659"/><use xlink:href="#24"/><use xlink:href="#25" y="2.171"/><use xlink:href="#26" y="4.342"/><use xlink:href="#27" y="6.513"/></svg><svg x="4018"><use xlink:href="#a"/><use xlink:href="#b" x="-.004" y="10.83"/><use xlink:href="#24"/><use xlink:href="#25" y="2.171"/><use xlink:href="#26" y="4.342"/><use xlink:href="#27" y="6.513"/><use xlink:href="#28" y="8.684"/></svg><svg x="4100"><use xlink:href="#a"/><use xlink:href="#b" x="-.004" y="13.001"/><use xlink:href="#24"/><use xlink:href="#25" y="2.171"/><use xlink:href="#26" y="4.342"/><use xlink:href="#27" y="6.513"/><use xlink:href="#28" y="8.684"/><text x="2.004" y="12.525" class="h">mode</text><text x="12.024" y="12.525" class="g">normal</text></svg><svg x="4182"><use xlink:href="#a"/><use xlink:href="#b" x="-.004"/></svg><svg x="4264"><use xlink:href="#a"/><use xlink:href="#b" x="1.996"/><use xlink:href="#1"/></svg><svg x="4346"><use xlink:href="#a"/><use xlink:href="#b" x="2.996"/><use xlink:href="#2"/></svg><svg x="4428"><use xlink:href="#a"/><use xlink:href="#b" x="3.996"/><use xlink:href="#3"/></svg><svg x="4510"><use xlink:href="#a"/><use xlink:href="#b" x="4.996"/><use xlink:href="#4"/></svg><svg x="4592"><use xlink:href="#a"/><use xlink:href="#b" x="5.996"/><use xlink:href="#5"/></svg><svg x="4674"><use xlink:href="#a"/><use xlink:href="#b" x="6.996"/><use xlink:href="#6"/></svg><svg x="4756"><use xlink:href="#a"/><use xlink:href="#b" x="7.996"/><use xlink:href="#7"/></svg><svg x="4838"><use xlink:href="#a"/><use xlink:href="#b" x="8.996"/><use xlink:href="#8"/></svg><svg x="4920"><use xlink:href="#a"/><use xlink:href="#b" x="9.996"/><use xlink:href="#8"/></svg><svg x="5002"><use xlink:href="#a"/><use xlink:href="#b" x="10.996"/><use xlink:href="#15"/></svg><svg x="5084"><use xlink:href="#a"/><use xlink:href="#b" x="11.996"/><use xlink:href="#16"/></svg><svg x="5166"><use xlink:href="#a"/><use xlink:href="#b" x="12.996"/><use xlink:href="#17"/></svg><svg x="5248"><use xlink:href="#a"/><use xlink:href="#b" x="13.996"/><use xlink:href="#18"/></svg><svg x="5330"><use xlink:href="#a"/><use xlink:href="#b" x="14.996"/><use xlink:href="#19"/></svg><svg x="5412"><use xlink:href="#a"/><use xlink:href="#b" x="15.996"/><use xlink:href="#19"/></svg><svg x="5494"><use xlink:href="#a"/><use xlink:href="#b" x="16.996"/><use xlink:href="#20"/></svg><svg x="5576"><use xlink:href="#a"/><use xlink:href="#b" x="17.996"/><use xlink:href="#21"/></svg><svg x="5658"><use xlink:href="#a"/><use xlink:href="#b" x="18.996"/><use xlink:href="#22"/></svg><svg x="5740"><use xlink:href="#a"/><use xlink:href="#b" x="19.996"/><use xlink:href="#23"/></svg><svg x="5822"><use xlink:href="#a"/><use xlink:href="#b" x="20.996"/><text y="1.67" class="f">❯</text><text x="2.004" y="1.67" class="g">devsync</text><text x="10.02" y="1.67" class="g">track</text><text x="16.032" y="1.67" class="g">somes</text></svg><svg x="5904"><use xlink:href="#a"/><use xlink:href="#b" x="21.996"/><text y="1.67" class="f">❯</text><text x="2.004" y="1.67" class="g">devsync</text><text x="10.02" y="1.67" class="g">track</text><text x="16.032" y="1.67" class="g">somese</text></svg><svg x="5986"><use xlink:href="#a"/><use xlink:href="#b" x="22.996"/><text y="1.67" class="f">❯</text><text x="2.004" y="1.67" class="g">devsync</text><text x="10.02" y="1.67" class="g">track</text><text x="16.032" y="1.67" class="g">somesec</text></svg><svg x="6068"><use xlink:href="#a"/><use xlink:href="#b" x="23.996"/><text y="1.67" class="f">❯</text><text x="2.004" y="1.67" class="g">devsync</text><text x="10.02" y="1.67" class="g">track</text><text x="16.032" y="1.67" class="g">somesecr</text></svg><svg x="6150"><use xlink:href="#a"/><use xlink:href="#b" x="24.996"/><text y="1.67" class="f">❯</text><text x="2.004" y="1.67" class="g">devsync</text><text x="10.02" y="1.67" class="g">track</text><text x="16.032" y="1.67" class="g">somesecre</text></svg><svg x="6232"><use xlink:href="#a"/><use xlink:href="#b" x="25.996"/><use xlink:href="#29"/></svg><svg x="6314"><use xlink:href="#a"/><use xlink:href="#b" x="26.996"/><use xlink:href="#29"/></svg><svg x="6396"><use xlink:href="#a"/><use xlink:href="#b" x="27.996"/><text y="1.67" class="f">❯</text><text x="2.004" y="1.67" class="g">devsync</text><text x="10.02" y="1.67" class="g">track</text><text x="16.032" y="1.67" class="g">somesecret</text><text x="27.054" y="1.67" class="g">-</text></svg><svg x="6478"><use xlink:href="#a"/><use xlink:href="#b" x="28.996"/><text y="1.67" class="f">❯</text><text x="2.004" y="1.67" class="g">devsync</text><text x="10.02" y="1.67" class="g">track</text><text x="16.032" y="1.67" class="g">somesecret</text><text x="27.054" y="1.67" class="g">--</text></svg><svg x="6560"><use xlink:href="#a"/><use xlink:href="#b" x="29.996"/><text y="1.67" class="f">❯</text><text x="2.004" y="1.67" class="g">devsync</text><text x="10.02" y="1.67" class="g">track</text><text x="16.032" y="1.67" class="g">somesecret</text><text x="27.054" y="1.67" class="g">--m</text></svg><svg x="6642"><use xlink:href="#a"/><use xlink:href="#b" x="30.996"/><text y="1.67" class="f">❯</text><text x="2.004" y="1.67" class="g">devsync</text><text x="10.02" y="1.67" class="g">track</text><text x="16.032" y="1.67" class="g">somesecret</text><text x="27.054" y="1.67" class="g">--mo</text></svg><svg x="6724"><use xlink:href="#a"/><use xlink:href="#b" x="31.996"/><text y="1.67" class="f">❯</text><text x="2.004" y="1.67" class="g">devsync</text><text x="10.02" y="1.67" class="g">track</text><text x="16.032" y="1.67" class="g">somesecret</text><text x="27.054" y="1.67" class="g">--mod</text></svg><svg x="6806"><use xlink:href="#a"/><use xlink:href="#b" x="32.996"/><use xlink:href="#30"/></svg><svg x="6888"><use xlink:href="#a"/><use xlink:href="#b" x="33.996"/><use xlink:href="#30"/></svg><svg x="6970"><use xlink:href="#a"/><use xlink:href="#b" x="34.996"/><text y="1.67" class="f">❯</text><text x="2.004" y="1.67" class="g">devsync</text><text x="10.02" y="1.67" class="g">track</text><text x="16.032" y="1.67" class="g">somesecret</text><text x="27.054" y="1.67" class="g">--mode</text><text x="34.068" y="1.67" class="g">s</text></svg><svg x="7052"><use xlink:href="#a"/><use xlink:href="#b" x="35.996"/><text y="1.67" class="f">❯</text><text x="2.004" y="1.67" class="g">devsync</text><text x="10.02" y="1.67" class="g">track</text><text x="16.032" y="1.67" class="g">somesecret</text><text x="27.054" y="1.67" class="g">--mode</text><text x="34.068" y="1.67" class="g">se</text></svg><svg x="7134"><use xlink:href="#a"/><use xlink:href="#b" x="36.996"/><text y="1.67" class="f">❯</text><text x="2.004" y="1.67" class="g">devsync</text><text x="10.02" y="1.67" class="g">track</text><text x="16.032" y="1.67" class="g">somesecret</text><text x="27.054" y="1.67" class="g">--mode</text><text x="34.068" y="1.67" class="g">sec</text></svg><svg x="7216"><use xlink:href="#a"/><use xlink:href="#b" x="37.996"/><text y="1.67" class="f">❯</text><text x="2.004" y="1.67" class="g">devsync</text><text x="10.02" y="1.67" class="g">track</text><text x="16.032" y="1.67" class="g">somesecret</text><text x="27.054" y="1.67" class="g">--mode</text><text x="34.068" y="1.67" class="g">secr</text></svg><svg x="7298"><use xlink:href="#a"/><use xlink:href="#b" x="38.996"/><text y="1.67" class="f">❯</text><text x="2.004" y="1.67" class="g">devsync</text><text x="10.02" y="1.67" class="g">track</text><text x="16.032" y="1.67" class="g">somesecret</text><text x="27.054" y="1.67" class="g">--mode</text><text x="34.068" y="1.67" class="g">secre</text></svg><svg x="7380"><use xlink:href="#a"/><use xlink:href="#b" x="39.996"/><use xlink:href="#31"/></svg><svg x="7462"><use xlink:href="#a"/><use xlink:href="#b" x="-.004" y="2.146"/><use xlink:href="#31"/></svg><svg x="7544"><use xlink:href="#a"/><use xlink:href="#b" x="-.004" y="4.317"/><use xlink:href="#31"/><use xlink:href="#25" y="2.171"/></svg><svg x="7626"><use xlink:href="#a"/><use xlink:href="#b" x="-.004" y="6.488"/><use xlink:href="#31"/><use xlink:href="#25" y="2.171"/><use xlink:href="#32" y="4.342"/></svg><svg x="7708"><use xlink:href="#a"/><use xlink:href="#b" x="-.004" y="8.659"/><use xlink:href="#31"/><use xlink:href="#25" y="2.171"/><use xlink:href="#32" y="4.342"/><use xlink:href="#33" y="6.513"/></svg><svg x="7790"><use xlink:href="#a"/><use xlink:href="#b" x="-.004" y="10.83"/><use xlink:href="#31"/><use xlink:href="#25" y="2.171"/><use xlink:href="#32" y="4.342"/><use xlink:href="#33" y="6.513"/><use xlink:href="#28" y="8.684"/></svg><svg x="7872"><use xlink:href="#a"/><use xlink:href="#b" x="-.004" y="13.001"/><use xlink:href="#31"/><use xlink:href="#25" y="2.171"/><use xlink:href="#32" y="4.342"/><use xlink:href="#33" y="6.513"/><use xlink:href="#28" y="8.684"/><text x="2.004" y="12.525" class="h">mode</text><text x="12.024" y="12.525" style="white-space:pre" fill="#dbab79">secret</text></svg><svg x="7954"><use xlink:href="#a"/><use xlink:href="#b" x="-.004"/></svg><svg x="8036"><use xlink:href="#a"/><use xlink:href="#b" x="1.996"/><use xlink:href="#1"/></svg><svg x="8118"><use xlink:href="#a"/><use xlink:href="#b" x="2.996"/><use xlink:href="#2"/></svg><svg x="8200"><use xlink:href="#a"/><use xlink:href="#b" x="3.996"/><use xlink:href="#3"/></svg><svg x="8282"><use xlink:href="#a"/><use xlink:href="#b" x="4.996"/><use xlink:href="#4"/></svg><svg x="8364"><use xlink:href="#a"/><use xlink:href="#b" x="5.996"/><use xlink:href="#5"/></svg><svg x="8446"><use xlink:href="#a"/><use xlink:href="#b" x="6.996"/><use xlink:href="#6"/></svg><svg x="8528"><use xlink:href="#a"/><use xlink:href="#b" x="7.996"/><use xlink:href="#7"/></svg><svg x="8610"><use xlink:href="#a"/><use xlink:href="#b" x="8.996"/><use xlink:href="#8"/></svg><svg x="8692"><use xlink:href="#a"/><use xlink:href="#b" x="9.996"/><use xlink:href="#8"/></svg><svg x="8774"><use xlink:href="#a"/><use xlink:href="#b" x="10.996"/><text y="1.67" class="f">❯</text><text x="2.004" y="1.67" class="g">devsync</text><text x="10.02" y="1.67" class="g">p</text></svg><svg x="8856"><use xlink:href="#a"/><use xlink:href="#b" x="11.996"/><text y="1.67" class="f">❯</text><text x="2.004" y="1.67" class="g">devsync</text><text x="10.02" y="1.67" class="g">pu</text></svg><svg x="8938"><use xlink:href="#a"/><use xlink:href="#b" x="12.996"/><text y="1.67" class="f">❯</text><text x="2.004" y="1.67" class="g">devsync</text><text x="10.02" y="1.67" class="g">pus</text></svg><svg x="9020"><use xlink:href="#a"/><use xlink:href="#b" x="13.996"/><use xlink:href="#34"/></svg><svg x="9102"><use xlink:href="#a"/><use xlink:href="#b" x="-.004" y="2.146"/><use xlink:href="#34"/></svg><svg x="9184"><use xlink:href="#a"/><use xlink:href="#b" x="-.004" y="4.317"/><use xlink:href="#34"/><use xlink:href="#35" y="2.171"/></svg><svg x="9266"><use xlink:href="#a"/><use xlink:href="#b" x="-.004" y="6.488"/><use xlink:href="#34"/><use xlink:href="#35" y="2.171"/><text x="2.004" y="6.012" class="h">plain:</text><text x="9.018" y="6.012" class="g">1</text><text x="12.024" y="6.012" class="h">encrypted:</text><text x="23.046" y="6.012" class="g">1</text><text x="26.052" y="6.012" class="h">symlinks:</text><text x="36.072" y="6.012" class="g">0</text><text x="39.078" y="6.012" class="h">dirs:</text><text x="45.09" y="6.012" class="g">0</text><text x="48.096" y="6.012" class="h">removed:</text><text x="57.114" y="6.012" class="g">0</text></svg><svg x="9348"><use xlink:href="#a"/><use xlink:href="#b" x="-.004"/></svg><svg x="9430"><use xlink:href="#a"/><use xlink:href="#b" x="1.996"/><use xlink:href="#1"/></svg><svg x="9512"><use xlink:href="#a"/><use xlink:href="#b" x="2.996"/><use xlink:href="#2"/></svg><svg x="9594"><use xlink:href="#a"/><use xlink:href="#b" x="3.996"/><use xlink:href="#3"/></svg><svg x="9676"><use xlink:href="#a"/><use xlink:href="#b" x="4.996"/><use xlink:href="#4"/></svg><svg x="9758"><use xlink:href="#a"/><use xlink:href="#b" x="5.996"/><use xlink:href="#5"/></svg><svg x="9840"><use xlink:href="#a"/><use xlink:href="#b" x="6.996"/><use xlink:href="#6"/></svg><svg x="9922"><use xlink:href="#a"/><use xlink:href="#b" x="7.996"/><use xlink:href="#7"/></svg><svg x="10004"><use xlink:href="#a"/><use xlink:href="#b" x="8.996"/><use xlink:href="#8"/></svg><svg x="10086"><use xlink:href="#a"/><use xlink:href="#b" x="9.996"/><use xlink:href="#8"/></svg><svg x="10168"><use xlink:href="#a"/><use xlink:href="#b" x="10.996"/><text y="1.67" class="f">❯</text><text x="2.004" y="1.67" class="g">devsync</text><text x="10.02" y="1.67" class="g">c</text></svg><svg x="10250"><use xlink:href="#a"/><use xlink:href="#b" x="11.996"/><use xlink:href="#36"/></svg><svg x="10332"><use xlink:href="#a"/><use xlink:href="#b" x="-.004" y="2.146"/><use xlink:href="#36"/></svg><svg x="10414"><use xlink:href="#a"/><use xlink:href="#b" x="-.004" y="4.317"/><use xlink:href="#36"/><use xlink:href="#37" y="2.171"/></svg><svg x="10496"><use xlink:href="#a"/><use xlink:href="#b" x="1.996" y="4.317"/><use xlink:href="#36"/><use xlink:href="#37" y="2.171"/><use xlink:href="#1" y="4.342"/></svg><svg x="10578"><use xlink:href="#a"/><use xlink:href="#b" x="2.996" y="4.317"/><use xlink:href="#36"/><use xlink:href="#37" y="2.171"/><use xlink:href="#38" y="4.342"/></svg><svg x="10660"><use xlink:href="#a"/><use xlink:href="#b" x="3.996" y="4.317"/><use xlink:href="#36"/><use xlink:href="#37" y="2.171"/><use xlink:href="#39" y="4.342"/></svg><svg x="10742"><use xlink:href="#a"/><use xlink:href="#b" x="4.996" y="4.317"/><use xlink:href="#36"/><use xlink:href="#37" y="2.171"/><use xlink:href="#40" y="4.342"/></svg><svg x="10824"><use xlink:href="#a"/><use xlink:href="#b" x="5.996" y="4.317"/><use xlink:href="#36"/><use xlink:href="#37" y="2.171"/><use xlink:href="#40" y="4.342"/></svg><svg x="10906"><use xlink:href="#a"/><use xlink:href="#b" x="6.996" y="4.317"/><use xlink:href="#36"/><use xlink:href="#37" y="2.171"/><text y="6.012" class="f">❯</text><text x="2.004" y="6.012" class="g">git</text><text x="6.012" y="6.012" class="g">r</text></svg><svg x="10988"><use xlink:href="#a"/><use xlink:href="#b" x="7.996" y="4.317"/><use xlink:href="#36"/><use xlink:href="#37" y="2.171"/><text y="6.012" class="f">❯</text><text x="2.004" y="6.012" class="g">git</text><text x="6.012" y="6.012" class="g">re</text></svg><svg x="11070"><use xlink:href="#a"/><use xlink:href="#b" x="8.996" y="4.317"/><use xlink:href="#36"/><use xlink:href="#37" y="2.171"/><text y="6.012" class="f">❯</text><text x="2.004" y="6.012" class="g">git</text><text x="6.012" y="6.012" class="g">rem</text></svg><svg x="11152"><use xlink:href="#a"/><use xlink:href="#b" x="9.996" y="4.317"/><use xlink:href="#36"/><use xlink:href="#37" y="2.171"/><text y="6.012" class="f">❯</text><text x="2.004" y="6.012" class="g">git</text><text x="6.012" y="6.012" class="g">remo</text></svg><svg x="11234"><use xlink:href="#a"/><use xlink:href="#b" x="10.996" y="4.317"/><use xlink:href="#36"/><use xlink:href="#37" y="2.171"/><text y="6.012" class="f">❯</text><text x="2.004" y="6.012" class="g">git</text><text x="6.012" y="6.012" class="g">remot</text></svg><svg x="11316"><use xlink:href="#a"/><use xlink:href="#b" x="11.996" y="4.317"/><use xlink:href="#36"/><use xlink:href="#37" y="2.171"/><use xlink:href="#41" y="4.342"/></svg><svg x="11398"><use xlink:href="#a"/><use xlink:href="#b" x="12.996" y="4.317"/><use xlink:href="#36"/><use xlink:href="#37" y="2.171"/><use xlink:href="#41" y="4.342"/></svg><svg x="11480"><use xlink:href="#a"/><use xlink:href="#b" x="13.996" y="4.317"/><use xlink:href="#36"/><use xlink:href="#37" y="2.171"/><text y="6.012" class="f">❯</text><text x="2.004" y="6.012" class="g">git</text><text x="6.012" y="6.012" class="g">remote</text><text x="13.026" y="6.012" class="g">a</text></svg><svg x="11562"><use xlink:href="#a"/><use xlink:href="#b" x="14.996" y="4.317"/><use xlink:href="#36"/><use xlink:href="#37" y="2.171"/><text y="6.012" class="f">❯</text><text x="2.004" y="6.012" class="g">git</text><text x="6.012" y="6.012" class="g">remote</text><text x="13.026" y="6.012" class="g">ad</text></svg><svg x="11644"><use xlink:href="#a"/><use xlink:href="#b" x="15.996" y="4.317"/><use xlink:href="#36"/><use xlink:href="#37" y="2.171"/><use xlink:href="#42" y="4.342"/></svg><svg x="11726"><use xlink:href="#a"/><use xlink:href="#b" x="16.996" y="4.317"/><use xlink:href="#36"/><use xlink:href="#37" y="2.171"/><use xlink:href="#42" y="4.342"/></svg><svg x="11808"><use xlink:href="#a"/><use xlink:href="#b" x="17.996" y="4.317"/><use xlink:href="#36"/><use xlink:href="#37" y="2.171"/><text y="6.012" class="f">❯</text><text x="2.004" y="6.012" class="g">git</text><text x="6.012" y="6.012" class="g">remote</text><text x="13.026" y="6.012" class="g">add</text><text x="17.034" y="6.012" class="g">o</text></svg><svg x="11890"><use xlink:href="#a"/><use xlink:href="#b" x="18.996" y="4.317"/><use xlink:href="#36"/><use xlink:href="#37" y="2.171"/><text y="6.012" class="f">❯</text><text x="2.004" y="6.012" class="g">git</text><text x="6.012" y="6.012" class="g">remote</text><text x="13.026" y="6.012" class="g">add</text><text x="17.034" y="6.012" class="g">or</text></svg><svg x="11972"><use xlink:href="#a"/><use xlink:href="#b" x="19.996" y="4.317"/><use xlink:href="#36"/><use xlink:href="#37" y="2.171"/><text y="6.012" class="f">❯</text><text x="2.004" y="6.012" class="g">git</text><text x="6.012" y="6.012" class="g">remote</text><text x="13.026" y="6.012" class="g">add</text><text x="17.034" y="6.012" class="g">ori</text></svg><svg x="12054"><use xlink:href="#a"/><use xlink:href="#b" x="20.996" y="4.317"/><use xlink:href="#36"/><use xlink:href="#37" y="2.171"/><text y="6.012" class="f">❯</text><text x="2.004" y="6.012" class="g">git</text><text x="6.012" y="6.012" class="g">remote</text><text x="13.026" y="6.012" class="g">add</text><text x="17.034" y="6.012" class="g">orig</text></svg><svg x="12136"><use xlink:href="#a"/><use xlink:href="#b" x="21.996" y="4.317"/><use xlink:href="#36"/><use xlink:href="#37" y="2.171"/><text y="6.012" class="f">❯</text><text x="2.004" y="6.012" class="g">git</text><text x="6.012" y="6.012" class="g">remote</text><text x="13.026" y="6.012" class="g">add</text><text x="17.034" y="6.012" class="g">origi</text></svg><svg x="12218"><use xlink:href="#a"/><use xlink:href="#b" x="22.996" y="4.317"/><use xlink:href="#36"/><use xlink:href="#37" y="2.171"/><use xlink:href="#43" y="4.342"/></svg><svg x="12300"><use xlink:href="#a"/><use xlink:href="#b" x="23.996" y="4.317"/><use xlink:href="#36"/><use xlink:href="#37" y="2.171"/><use xlink:href="#43" y="4.342"/></svg><svg x="12382"><use xlink:href="#a"/><use xlink:href="#b" x="24.996" y="4.317"/><use xlink:href="#36"/><use xlink:href="#37" y="2.171"/><text y="6.012" class="f">❯</text><text x="2.004" y="6.012" class="g">git</text><text x="6.012" y="6.012" class="g">remote</text><text x="13.026" y="6.012" class="g">add</text><text x="17.034" y="6.012" class="g">origin</text><text x="24.048" y="6.012" class="g">s</text></svg><svg x="12464"><use xlink:href="#a"/><use xlink:href="#b" x="25.996" y="4.317"/><use xlink:href="#36"/><use xlink:href="#37" y="2.171"/><text y="6.012" class="f">❯</text><text x="2.004" y="6.012" class="g">git</text><text x="6.012" y="6.012" class="g">remote</text><text x="13.026" y="6.012" class="g">add</text><text x="17.034" y="6.012" class="g">origin</text><text x="24.048" y="6.012" class="g">so</text></svg><svg x="12546"><use xlink:href="#a"/><use xlink:href="#b" x="26.996" y="4.317"/><use xlink:href="#36"/><use xlink:href="#37" y="2.171"/><text y="6.012" class="f">❯</text><text x="2.004" y="6.012" class="g">git</text><text x="6.012" y="6.012" class="g">remote</text><text x="13.026" y="6.012" class="g">add</text><text x="17.034" y="6.012" class="g">origin</text><text x="24.048" y="6.012" class="g">som</text></svg><svg x="12628"><use xlink:href="#a"/><use xlink:href="#b" x="27.996" y="4.317"/><use xlink:href="#36"/><use xlink:href="#37" y="2.171"/><text y="6.012" class="f">❯</text><text x="2.004" y="6.012" class="g">git</text><text x="6.012" y="6.012" class="g">remote</text><text x="13.026" y="6.012" class="g">add</text><text x="17.034" y="6.012" class="g">origin</text><text x="24.048" y="6.012" class="g">some</text></svg><svg x="12710"><use xlink:href="#a"/><use xlink:href="#b" x="28.996" y="4.317"/><use xlink:href="#36"/><use xlink:href="#37" y="2.171"/><text y="6.012" class="f">❯</text><text x="2.004" y="6.012" class="g">git</text><text x="6.012" y="6.012" class="g">remote</text><text x="13.026" y="6.012" class="g">add</text><text x="17.034" y="6.012" class="g">origin</text><text x="24.048" y="6.012" class="g">somer</text></svg><svg x="12792"><use xlink:href="#a"/><use xlink:href="#b" x="29.996" y="4.317"/><use xlink:href="#36"/><use xlink:href="#37" y="2.171"/><text y="6.012" class="f">❯</text><text x="2.004" y="6.012" class="g">git</text><text x="6.012" y="6.012" class="g">remote</text><text x="13.026" y="6.012" class="g">add</text><text x="17.034" y="6.012" class="g">origin</text><text x="24.048" y="6.012" class="g">somere</text></svg><svg x="12874"><use xlink:href="#a"/><use xlink:href="#b" x="30.996" y="4.317"/><use xlink:href="#36"/><use xlink:href="#37" y="2.171"/><text y="6.012" class="f">❯</text><text x="2.004" y="6.012" class="g">git</text><text x="6.012" y="6.012" class="g">remote</text><text x="13.026" y="6.012" class="g">add</text><text x="17.034" y="6.012" class="g">origin</text><text x="24.048" y="6.012" class="g">somerep</text></svg><svg x="12956"><use xlink:href="#a"/><use xlink:href="#b" x="31.996" y="4.317"/><use xlink:href="#36"/><use xlink:href="#37" y="2.171"/><use xlink:href="#44" y="4.342"/></svg><svg x="13038"><use xlink:href="#a"/><use xlink:href="#b" x="-.004" y="6.488"/><use xlink:href="#36"/><use xlink:href="#37" y="2.171"/><use xlink:href="#44" y="4.342"/></svg><svg x="13120"><use xlink:href="#a"/><use xlink:href="#b" x="1.996" y="6.488"/><use xlink:href="#36"/><use xlink:href="#37" y="2.171"/><use xlink:href="#44" y="4.342"/><use xlink:href="#1" y="6.513"/></svg><svg x="13202"><use xlink:href="#a"/><use xlink:href="#b" x="2.996" y="6.488"/><use xlink:href="#36"/><use xlink:href="#37" y="2.171"/><use xlink:href="#44" y="4.342"/><use xlink:href="#38" y="6.513"/></svg><svg x="13284"><use xlink:href="#a"/><use xlink:href="#b" x="3.996" y="6.488"/><use xlink:href="#36"/><use xlink:href="#37" y="2.171"/><use xlink:href="#44" y="4.342"/><use xlink:href="#39" y="6.513"/></svg><svg x="13366"><use xlink:href="#a"/><use xlink:href="#b" x="4.996" y="6.488"/><use xlink:href="#36"/><use xlink:href="#37" y="2.171"/><use xlink:href="#44" y="4.342"/><use xlink:href="#40" y="6.513"/></svg><svg x="13448"><use xlink:href="#a"/><use xlink:href="#b" x="5.996" y="6.488"/><use xlink:href="#36"/><use xlink:href="#37" y="2.171"/><use xlink:href="#44" y="4.342"/><use xlink:href="#40" y="6.513"/></svg><svg x="13530"><use xlink:href="#a"/><use xlink:href="#b" x="6.996" y="6.488"/><use xlink:href="#36"/><use xlink:href="#37" y="2.171"/><use xlink:href="#44" y="4.342"/><text y="8.183" class="f">❯</text><text x="2.004" y="8.183" class="g">git</text><text x="6.012" y="8.183" class="g">p</text></svg><svg x="13612"><use xlink:href="#a"/><use xlink:href="#b" x="7.996" y="6.488"/><use xlink:href="#36"/><use xlink:href="#37" y="2.171"/><use xlink:href="#44" y="4.342"/><text y="8.183" class="f">❯</text><text x="2.004" y="8.183" class="g">git</text><text x="6.012" y="8.183" class="g">pu</text></svg><svg x="13694"><use xlink:href="#a"/><use xlink:href="#b" x="8.996" y="6.488"/><use xlink:href="#36"/><use xlink:href="#37" y="2.171"/><use xlink:href="#44" y="4.342"/><text y="8.183" class="f">❯</text><text x="2.004" y="8.183" class="g">git</text><text x="6.012" y="8.183" class="g">pus</text></svg><svg x="13776"><use xlink:href="#a"/><use xlink:href="#b" x="9.996" y="6.488"/><use xlink:href="#36"/><use xlink:href="#37" y="2.171"/><use xlink:href="#44" y="4.342"/><use xlink:href="#45" y="6.513"/></svg><svg x="13858"><use xlink:href="#a"/><use xlink:href="#b" x="-.004" y="8.659"/><use xlink:href="#36"/><use xlink:href="#37" y="2.171"/><use xlink:href="#44" y="4.342"/><use xlink:href="#45" y="6.513"/></svg><svg x="13940"><use xlink:href="#a"/><use xlink:href="#b" x="-.004" y="10.83"/><use xlink:href="#36"/><use xlink:href="#37" y="2.171"/><use xlink:href="#44" y="4.342"/><use xlink:href="#45" y="6.513"/><use xlink:href="#46" y="8.684"/></svg><svg x="14022"><use xlink:href="#a"/><use xlink:href="#b" x="-.004" y="13.001"/><use xlink:href="#36"/><use xlink:href="#37" y="2.171"/><use xlink:href="#44" y="4.342"/><use xlink:href="#45" y="6.513"/><use xlink:href="#46" y="8.684"/><use xlink:href="#47" y="10.855"/></svg><svg x="14104"><use xlink:href="#a"/><use xlink:href="#b" x="-.004" y="15.172"/><use xlink:href="#36"/><use xlink:href="#37" y="2.171"/><use xlink:href="#44" y="4.342"/><use xlink:href="#45" y="6.513"/><use xlink:href="#46" y="8.684"/><use xlink:href="#47" y="10.855"/><use xlink:href="#48" y="13.026"/></svg><svg x="14186"><use xlink:href="#a"/><use xlink:href="#b" x="-.004" y="17.343"/><use xlink:href="#36"/><use xlink:href="#37" y="2.171"/><use xlink:href="#44" y="4.342"/><use xlink:href="#45" y="6.513"/><use xlink:href="#46" y="8.684"/><use xlink:href="#47" y="10.855"/><use xlink:href="#48" y="13.026"/><use xlink:href="#49" y="15.197"/></svg><svg x="14268"><use xlink:href="#a"/><use xlink:href="#b" x="-.004" y="19.514"/><use xlink:href="#36"/><use xlink:href="#37" y="2.171"/><use xlink:href="#44" y="4.342"/><use xlink:href="#45" y="6.513"/><use xlink:href="#46" y="8.684"/><use xlink:href="#47" y="10.855"/><use xlink:href="#48" y="13.026"/><use xlink:href="#49" y="15.197"/><use xlink:href="#50" y="17.368"/></svg><svg x="14350"><use xlink:href="#a"/><use xlink:href="#b" x="-.004" y="21.685"/><use xlink:href="#36"/><use xlink:href="#37" y="2.171"/><use xlink:href="#44" y="4.342"/><use xlink:href="#45" y="6.513"/><use xlink:href="#46" y="8.684"/><use xlink:href="#47" y="10.855"/><use xlink:href="#48" y="13.026"/><use xlink:href="#49" y="15.197"/><use xlink:href="#50" y="17.368"/><use xlink:href="#51" y="19.539"/></svg><svg x="14432"><use xlink:href="#a"/><use xlink:href="#b" x="1.996" y="21.685"/><use xlink:href="#36"/><use xlink:href="#37" y="2.171"/><use xlink:href="#44" y="4.342"/><use xlink:href="#45" y="6.513"/><use xlink:href="#46" y="8.684"/><use xlink:href="#47" y="10.855"/><use xlink:href="#48" y="13.026"/><use xlink:href="#49" y="15.197"/><use xlink:href="#50" y="17.368"/><use xlink:href="#51" y="19.539"/><use xlink:href="#1" y="21.71"/></svg></svg></g></g></svg></svg>